<svg xmlns="http://www.w3.org/2000/svg" viewBox="0 0 64 64"><rect width="64" height="64" rx="14" fill="#2b1a10"/><path d="M17 20h26v30a6 6 0 0 1-6 6H23a6 6 0 0 1-6-6z" fill="#a0673a" stroke="#140c07" stroke-width="3"/><path d="M43 26h5a6 6 0 0 1 6 6v6a6 6 0 0 1-6 6h-5" fill="none" stroke="#140c07" stroke-width="4"/><path d="M14 22c0-7 6-10 10-8 2-5 11-6 14-1 5-2 10 2 9 8z" fill="#fff4dc" stroke="#140c07" stroke-width="3"/><text x="30" y="47" text-anchor="middle" font-family="Georgia,serif" font-size="18" font-weight="700" fill="#fff4dc">W</text></svg>
